<?xml version="1.0" standalone="no"?>
<!DOCTYPE svg PUBLIC "-//W3C//DTD SVG 20010904//EN"
 "http://www.w3.org/TR/2001/REC-SVG-20010904/DTD/svg10.dtd">
<svg version="1.0" xmlns="http://www.w3.org/2000/svg"
 width="945.000000pt" height="535.000000pt" viewBox="0 0 945.000000 535.000000"
 preserveAspectRatio="xMidYMid meet">

<g transform="translate(0.000000,535.000000) scale(0.100000,-0.100000)"
fill="#000000" stroke="none">
<path d="M0 2675 l0 -2675 4725 0 4725 0 0 2675 0 2675 -4725 0 -4725 0 0
-2675z m9410 0 l0 -2625 -4685 0 -4685 0 0 2625 0 2625 4685 0 4685 0 0 -2625z"/>
<path d="M100 2675 l0 -2565 4625 0 4625 0 0 2565 0 2565 -4625 0 -4625 0 0
-2565z m9120 0 l0 -2435 -4495 0 -4495 0 0 2435 0 2435 4495 0 4495 0 0 -2435z"/>
<path d="M290 2675 l0 -2375 4435 0 4435 0 0 2375 0 2375 -4435 0 -4435 0 0
-2375z m2387 1050 c50 -21 72 -42 94 -90 42 -92 5 -237 -50 -196 -100 73 -306
98 -547 65 l-41 -6 23 -23 c16 -16 24 -36 24 -58 0 -28 -49 -323 -64 -390 -3
-13 0 -16 13 -12 10 3 41 6 70 6 44 1 57 -3 78 -24 30 -29 43 -110 24 -146
-11 -20 -13 -20 -42 -6 -21 11 -51 15 -102 13 l-72 -3 -12 -60 c-24 -121 -56
-363 -62 -470 -6 -108 -6 -110 -31 -113 -40 -5 -92 37 -123 98 -28 53 -29 58
-23 162 4 58 13 157 21 219 19 146 20 139 -15 139 -68 0 -100 37 -100 115 0
48 11 63 30 40 8 -10 31 -15 65 -15 50 0 54 2 59 28 6 30 41 312 51 412 l7 66
-129 0 c-99 0 -135 4 -159 17 -52 27 -81 117 -53 168 10 19 10 19 36 -1 41
-32 189 -27 483 16 491 72 491 72 547 49z m1442 -133 c19 -9 44 -29 55 -45 19
-26 19 -32 8 -145 -7 -64 -39 -249 -72 -411 -33 -161 -60 -301 -60 -310 0 -9
22 34 49 94 92 209 128 255 195 255 84 0 156 -69 156 -151 0 -75 -73 -170
-170 -219 l-39 -20 15 -52 c33 -112 75 -196 115 -232 46 -42 68 -45 105 -13
26 23 26 25 29 163 1 97 10 183 29 286 14 81 26 163 26 182 0 19 7 42 16 50
31 32 147 13 196 -31 25 -23 23 -72 -12 -249 -48 -247 -50 -377 -4 -414 39
-34 110 73 169 255 43 136 62 223 71 340 3 50 11 96 17 103 14 18 106 15 146
-6 19 -9 43 -29 54 -44 19 -25 19 -32 7 -120 -13 -100 -54 -301 -93 -465 l-25
-103 32 18 c59 33 144 127 178 198 18 37 38 69 44 71 6 2 21 -5 34 -15 23 -18
23 -19 6 -63 -39 -102 -189 -256 -284 -291 -22 -8 -35 -21 -39 -38 -26 -111
-80 -277 -112 -346 -78 -165 -141 -222 -229 -209 -66 10 -136 50 -169 98 -25
35 -28 49 -28 116 0 60 5 87 24 126 37 76 151 183 243 228 79 39 82 43 94 111
l7 39 -44 -45 c-56 -59 -110 -76 -188 -60 -29 6 -69 23 -87 37 l-34 26 -35
-26 c-37 -29 -140 -65 -183 -65 -109 0 -207 94 -242 230 -18 74 -21 78 -32 50
-5 -14 -25 -77 -43 -140 l-33 -115 -37 -3 c-27 -2 -48 4 -77 23 l-39 26 -55
-27 c-110 -54 -228 -16 -283 91 -23 45 -26 61 -25 160 0 76 9 153 27 248 39
200 36 215 -27 124 -60 -87 -140 -288 -221 -559 l-26 -88 -42 0 c-24 0 -56 8
-74 20 -32 19 -33 19 -75 0 -110 -50 -249 2 -289 108 -9 23 -11 22 -46 -32
-45 -67 -95 -96 -169 -96 -102 1 -184 68 -205 169 -15 74 -6 218 26 401 13 80
25 162 25 182 0 41 27 68 68 68 44 0 112 -22 137 -46 33 -31 33 -70 -5 -259
-49 -245 -50 -368 -4 -406 14 -11 20 -10 39 13 59 69 175 485 175 630 0 41 27
68 68 68 44 0 112 -22 137 -46 33 -31 33 -70 -5 -259 -37 -185 -46 -295 -31
-353 13 -48 31 -60 65 -44 20 9 24 20 29 85 8 114 68 570 77 587 21 44 145 32
195 -18 26 -26 27 -30 21 -102 -3 -41 -9 -88 -12 -105 -3 -16 15 11 40 60 74
148 126 195 214 195 52 0 122 -38 146 -78 25 -45 24 -108 -7 -262 -46 -227
-42 -361 11 -368 47 -7 59 19 66 141 9 139 25 258 82 602 25 149 50 328 56
399 11 113 15 129 33 137 28 12 113 2 154 -19z m3143 -3 c57 -29 67 -62 57
-180 -5 -53 -36 -230 -69 -395 -57 -283 -71 -379 -41 -289 25 74 97 220 126
254 93 109 279 63 300 -75 4 -24 -1 -77 -14 -139 -44 -210 -55 -354 -30 -408
36 -80 126 21 183 206 5 16 9 16 38 4 28 -12 33 -18 30 -45 -3 -49 -48 -152
-90 -206 -49 -66 -108 -96 -184 -96 -96 0 -169 50 -200 137 -22 63 -15 230 15
381 15 72 27 144 27 159 l0 26 -25 -23 c-52 -49 -157 -300 -230 -550 -19 -68
-38 -126 -40 -129 -15 -15 -82 1 -115 28 l-37 29 -68 -34 c-58 -29 -77 -34
-139 -34 -92 0 -163 21 -221 66 l-46 35 -31 -26 c-60 -51 -108 -68 -198 -73
-98 -5 -177 19 -234 69 l-33 28 -23 -24 c-93 -99 -265 -84 -335 30 -28 46 -30
55 -33 169 -3 107 15 317 35 394 5 22 4 22 -63 17 -81 -7 -117 7 -122 47 l-3
26 103 8 103 9 13 70 c7 39 23 140 35 225 l23 155 63 3 c72 3 141 -23 168 -64
19 -30 14 -87 -22 -248 -14 -60 -23 -112 -20 -114 9 -9 197 17 240 33 102 37
219 6 262 -71 65 -113 -11 -324 -139 -388 -28 -14 -65 -26 -80 -26 -28 0 -28
0 -28 -66 0 -37 5 -84 12 -106 14 -47 59 -88 96 -88 37 1 102 32 132 64 24 27
25 31 22 149 -4 142 17 256 70 365 38 81 111 156 164 171 148 41 274 -29 274
-153 0 -91 -55 -145 -117 -117 l-26 12 32 33 c57 59 51 150 -8 131 -12 -3 -35
-27 -52 -51 -98 -142 -133 -467 -62 -563 41 -54 120 -49 188 10 33 30 35 34
35 98 0 99 24 282 80 621 28 168 54 354 58 415 7 103 8 110 32 123 32 17 110
8 162 -19z"/>
<path d="M4279 2944 c-9 -11 -29 -44 -44 -74 l-27 -55 26 25 c36 33 68 86 64
106 -3 14 -5 14 -19 -2z"/>
<path d="M4800 2089 c-112 -61 -190 -164 -190 -252 0 -134 115 -109 173 37 21
52 79 246 74 246 -1 0 -27 -14 -57 -31z"/>
<path d="M6292 2944 c-30 -21 -67 -96 -92 -185 -25 -91 -26 -119 -3 -119 24 0
76 38 102 75 49 72 77 205 49 233 -16 16 -29 15 -56 -4z"/>
<path d="M5898 2903 c-18 -5 -27 -38 -60 -228 -23 -135 -22 -301 1 -329 19
-23 44 -20 75 9 25 23 26 28 19 77 -20 130 2 300 53 417 13 29 24 55 24 57 0
5 -91 3 -112 -3z"/>
</g>
</svg>
